<?xml version="1.0" encoding="UTF-8"?>
<svg id="Layer_2" data-name="Layer 2" xmlns="http://www.w3.org/2000/svg" viewBox="0 0 49.42 135.71">
  <defs>
    <style>
      .cls-1 {
        fill: none;
        stroke: #c45f5e;
        stroke-miterlimit: 10;
        stroke-width: 2px;
      }
    </style>
  </defs>
  <g id="Layer_1-2" data-name="Layer 1">
    <g>
      <circle class="cls-1" cx="24.56" cy="85.63" r="9.39"/>
      <circle class="cls-1" cx="24.56" cy="55.91" r="9.39"/>
      <circle class="cls-1" cx="24.56" cy="26.19" r="9.39"/>
      <polygon class="cls-1" points="46.35 132.16 48.29 128.46 46.29 124.42 48.29 120.38 46.29 116.34 48.29 112.3 46.29 108.26 48.29 104.22 46.29 100.18 48.29 96.14 46.29 92.1 48.29 88.06 46.29 84.02 48.29 79.98 46.29 75.94 48.29 71.9 46.29 67.86 48.29 63.81 46.29 59.77 48.29 55.74 46.29 51.7 48.29 47.66 46.29 43.61 48.29 39.57 46.29 35.53 48.29 31.49 46.29 27.44 48.29 23.4 46.29 19.36 48.29 15.31 46.29 11.27 48.29 7.22 46.35 3.5 45.89 2.17 44.48 4.17 43.07 2.17 41.66 4.17 40.25 2.17 38.84 4.17 37.44 2.17 36.03 4.17 34.62 2.17 33.2 4.17 31.79 2.17 30.39 4.17 28.98 2.17 27.56 4.17 26.15 2.17 24.74 4.17 23.33 2.17 21.92 4.17 20.51 2.17 19.09 4.17 17.68 2.17 16.27 4.17 14.86 2.17 13.45 4.17 12.03 2.17 10.62 4.17 9.21 2.17 7.79 4.17 6.38 2.17 4.96 4.17 3.54 2.17 3.07 3.5 1.12 7.2 3.12 11.24 1.12 15.28 3.12 19.32 1.12 23.36 3.12 27.4 1.12 31.44 3.12 35.48 1.12 39.52 3.12 43.56 1.12 47.6 3.12 51.64 1.12 55.68 3.12 59.72 1.12 63.76 3.12 67.81 1.12 71.85 3.12 75.89 1.12 79.92 3.12 83.97 1.12 88 3.12 92.05 1.12 96.09 3.12 100.13 1.12 104.17 3.12 108.22 1.12 112.26 3.12 116.3 1.12 120.35 3.12 124.39 1.12 128.44 3.07 132.16 3.53 133.49 4.94 131.49 6.35 133.49 7.76 131.49 9.17 133.49 10.57 131.49 11.98 133.49 13.39 131.49 14.8 133.49 16.21 131.49 17.62 133.49 19.03 131.49 20.44 133.49 21.85 131.49 23.26 133.49 24.67 131.49 26.09 133.49 27.5 131.49 28.91 133.49 30.32 131.49 31.74 133.49 33.15 131.49 34.56 133.49 35.97 131.49 37.38 133.49 38.8 131.49 40.21 133.49 41.63 131.49 43.04 133.49 44.46 131.49 46.05 133.48 46.35 132.16"/>
    </g>
  </g>
</svg>