<?xml version="1.0" encoding="UTF-8"?>
<svg id="Layer_2" data-name="Layer 2" xmlns="http://www.w3.org/2000/svg" viewBox="0 0 294.86 132.87">
  <defs>
    <style>
      .cls-1 {
        fill: none;
        stroke: #000;
        stroke-miterlimit: 10;
        stroke-width: 3px;
      }
    </style>
  </defs>
  <g id="Ban">
    <g>
      <path class="cls-1" d="m1.75,40.9h0c1.41-10.44,8.89-19.2,19.24-22.09C62.34,7.27,104.88,1.5,147.43,1.5s85.08,5.77,126.44,17.31c5.76,1.61,10.63,5.04,14.07,9.56,2.74,3.6,4.55,7.9,5.17,12.53h0c.09.66.16,1.32.2,1.99.03.53.05,1.06.05,1.59v40.97c0,11.96-7.97,22.45-19.49,25.67l-20.73,5.78c-31.28,8.73-63.36,13.51-95.52,14.33-6.34.18-12.69.19-19.04.03-1.88-.04-3.76-.1-5.64-.16-2.33-.09-4.65-.19-6.98-.32-1.71-.1-3.43-.2-5.14-.31-.75-.06-1.51-.11-2.27-.17-.99-.07-1.97-.14-2.96-.23-.93-.07-1.86-.15-2.79-.23-.96-.08-1.91-.17-2.87-.27-2.66-.25-5.32-.53-7.97-.84-.7-.08-1.4-.16-2.1-.25-2.38-.29-4.76-.6-7.13-.93-2.58-.36-5.15-.75-7.72-1.17-1.43-.22-2.86-.46-4.28-.71-1.01-.17-2.02-.35-3.03-.53-1.64-.29-3.29-.6-4.93-.92-.79-.15-1.58-.31-2.36-.47-4.6-.91-9.19-1.91-13.77-3-.89-.21-1.79-.43-2.69-.65-4.09-1-8.17-2.07-12.23-3.2l-20.73-5.78c-11.52-3.22-19.49-13.71-19.49-25.67v-40.97c0-.29,0-.57.02-.85.02-.92.1-1.83.23-2.73"/>
      <path class="cls-1" d="m138.58,106.36v24.9c-1.88-.04-3.76-.1-5.64-.16-2.33-.09-4.65-.19-6.98-.32-1.71-.1-3.43-.2-5.14-.31-.76-.06-1.52-.11-2.27-.17-.99-.07-1.97-.14-2.96-.23-.93-.07-1.86-.15-2.79-.23-.96-.09-1.92-.17-2.87-.27-2.66-.25-5.32-.53-7.97-.84-.7-.08-1.4-.16-2.1-.25-2.38-.29-4.76-.6-7.13-.93-2.58-.36-5.15-.75-7.72-1.17-1.43-.22-2.86-.46-4.28-.71-1.01-.17-2.02-.35-3.03-.53-1.64-.29-3.29-.6-4.93-.92-.79-.15-1.57-.31-2.36-.47-4.6-.91-9.19-1.91-13.77-3-.89-.21-1.79-.43-2.69-.65-4.09-1-8.17-2.07-12.23-3.2l-20.73-5.78c-11.52-3.22-19.49-13.71-19.49-25.67v-40.97c0-.29,0-.57.02-.85.02-.92.1-1.83.23-2.73.84,1.16,3.89,5.02,10.58,9.98,13.89,10.28,43.46,25.27,101.41,30.44,14.1,1.26,24.84,12.11,24.84,25.04Z"/>
      <path class="cls-1" d="m293.36,44.48v40.97c0,11.96-7.97,22.45-19.49,25.67l-20.73,5.78c-31.28,8.73-63.36,13.51-95.52,14.33v-24.87c0-12.93,10.63-23.78,24.59-25.04,57.37-5.17,86.66-20.15,100.42-30.44l.72-.54c6.11-4.68,8.95-8.31,9.76-9.43.09.65.16,1.31.2,1.98.03.53.05,1.06.05,1.59Z"/>
      <circle class="cls-1" cx="180.68" cy="105.55" r="7.33"/>
    </g>
  </g>
</svg>